#tb 0: 1000/14587
#media_type 0: video
#codec_id 0: rawvideo
#dimensions 0: 496x241
#sar 0: 0/1
0,          0,          0,        1,   478144, 0x6ed01dcd
0,          1,          1,        1,   478144, 0x6ed01dcd
0,          2,          2,        1,   478144, 0x6ed01dcd
0,          3,          3,        1,   478144, 0xb1b4a74b
0,          4,          4,        1,   478144, 0x94c345c3
0,          5,          5,        1,   478144, 0x05e0388d
0,          6,          6,        1,   478144, 0xe747476a
0,          7,          7,        1,   478144, 0x8c1561f1
0,          8,          8,        1,   478144, 0x8c1561f1
0,          9,          9,        1,   478144, 0x8c1561f1
